<mxfile host="app.diagrams.net" modified="2023-06-30T02:25:25.714Z" agent="Mozilla/5.0 (Windows NT 10.0; Win64; x64) AppleWebKit/537.36 (KHTML, like Gecko) Chrome/114.0.0.0 Safari/537.36" version="21.5.2" etag="wvy7_0QaA31xEyc4-drl" type="github">
  <diagram name="第1頁" id="lrOUX1-DtdHRJdvDz8WH">
    <mxGraphModel>
      <root>
        <mxCell id="0" />
        <mxCell id="1" parent="0" />
      </root>
    </mxGraphModel>
  </diagram>
</mxfile>
